name rise36.2859peak64.2979fall75.1499.mot
datacolumns 19
datarows 32
range 22.66491400000000 22.71658200000000
endheader
time	ground_force1_vx	ground_force1_vy	ground_force1_vz	ground_force1_px	ground_force1_py	ground_force1_pz	ground_force2_vx	ground_force2_vy	ground_force2_vz	ground_force2_px	ground_force2_py	ground_force2_pz	ground_torque1_x	ground_torque1_y	ground_torque1_z	ground_torque2_x	ground_torque2_y	ground_torque2_z	
22.66491400000000	-3.52349100000000	43.43319400000000	-9.73383100000000	0.36260100000000	0.00000000000000	0.11753300000000	-45.32677300000000	784.52251999999999	-71.74301800000001	0.17065800000000	0.00000000000000	-0.10355200000000	0.00000000000000	-7.59206700000000	0.00000000000000	0.00000000000000	-31.37641000000000	0.00000000000000	
22.66658100000000	-3.78263500000000	51.20831100000000	-10.88098400000000	0.36535200000000	0.00000000000000	0.11905000000000	-45.42142300000000	781.91675399999997	-71.54674900000001	0.17008500000000	0.00000000000000	-0.10347800000000	0.00000000000000	-8.54989900000000	0.00000000000000	0.00000000000000	-31.22176900000000	0.00000000000000	
22.66826200000000	-3.94886400000000	59.16035200000000	-11.89880600000000	0.36780400000000	0.00000000000000	0.12039900000000	-45.51881200000000	779.12913600000002	-71.31304400000000	0.16950500000000	0.00000000000000	-0.10340000000000	0.00000000000000	-9.42110400000000	0.00000000000000	0.00000000000000	-31.05902800000000	0.00000000000000	
22.66991100000000	-4.01061100000000	67.19308400000000	-12.76089600000000	0.37001500000000	0.00000000000000	0.12161100000000	-45.61898300000000	776.15836100000001	-71.04122800000000	0.16891800000000	0.00000000000000	-0.10331800000000	0.00000000000000	-10.18490900000000	0.00000000000000	0.00000000000000	-30.88815000000000	0.00000000000000	
22.67159300000000	-3.96070500000000	75.23173400000000	-13.44999300000000	0.37203200000000	0.00000000000000	0.12270700000000	-45.72193500000000	773.00331400000005	-70.73069500000000	0.16832600000000	0.00000000000000	-0.10323100000000	0.00000000000000	-10.82748300000000	0.00000000000000	0.00000000000000	-30.70911100000000	0.00000000000000	
22.67325100000000	-3.79627800000000	83.22555800000001	-13.95803000000000	0.37389000000000	0.00000000000000	0.12370600000000	-45.82762200000000	769.66306699999996	-70.38090800000001	0.16772700000000	0.00000000000000	-0.10314100000000	0.00000000000000	-11.34204000000000	0.00000000000000	0.00000000000000	-30.52189600000000	0.00000000000000	
22.67491700000000	-3.51835800000000	91.14800300000000	-14.28544600000000	0.37561700000000	0.00000000000000	0.12462100000000	-45.93595300000000	766.13687700000003	-69.99140700000000	0.16712200000000	0.00000000000000	-0.10304600000000	0.00000000000000	-11.72836200000000	0.00000000000000	0.00000000000000	-30.32650100000000	0.00000000000000	
22.67658500000000	-3.13121400000000	98.99484500000000	-14.43990500000000	0.37723500000000	0.00000000000000	0.12546400000000	-46.04679300000000	762.42418499999997	-69.56180500000001	0.16651300000000	0.00000000000000	-0.10294700000000	0.00000000000000	-11.99185600000000	0.00000000000000	0.00000000000000	-30.12293300000000	0.00000000000000	
22.67824600000000	-2.64154800000000	106.78080600000000	-14.43465600000000	0.37876200000000	0.00000000000000	0.12624500000000	-46.15995700000000	758.52461400000004	-69.09179700000000	0.16589800000000	0.00000000000000	-0.10284300000000	0.00000000000000	-12.14231700000000	0.00000000000000	0.00000000000000	-29.91120900000000	0.00000000000000	
22.67991700000000	-2.05764100000000	114.53520200000000	-14.28671400000000	0.38021400000000	0.00000000000000	0.12697100000000	-46.27521600000000	754.43796399999997	-68.58115900000000	0.16527900000000	0.00000000000000	-0.10273500000000	0.00000000000000	-12.19254000000000	0.00000000000000	0.00000000000000	-29.69135700000000	0.00000000000000	
22.68159000000000	-1.38852400000000	122.29714500000000	-14.01505900000000	0.38160200000000	0.00000000000000	0.12764900000000	-46.39229200000000	750.16421000000003	-68.02975000000001	0.16465700000000	0.00000000000000	-0.10262200000000	0.00000000000000	-12.15693900000000	0.00000000000000	0.00000000000000	-29.46341500000000	0.00000000000000	
22.68325200000000	-0.64323400000000	130.11077399999999	-13.63897800000000	0.38293600000000	0.00000000000000	0.12828300000000	-46.51086000000000	745.70349899999997	-67.43751700000000	0.16403100000000	0.00000000000000	-0.10250400000000	0.00000000000000	-12.05025500000000	0.00000000000000	0.00000000000000	-29.22743300000000	0.00000000000000	
22.68491100000000	0.16979000000000	138.02088000000001	-13.17668200000000	0.38422300000000	0.00000000000000	0.12887900000000	-46.63054600000000	741.05614800000001	-66.80449400000001	0.16340300000000	0.00000000000000	-0.10238100000000	0.00000000000000	-11.88647600000000	0.00000000000000	0.00000000000000	-28.98347200000000	0.00000000000000	
22.68657900000000	1.04316400000000	146.06921600000001	-12.64423500000000	0.38547200000000	0.00000000000000	0.12944000000000	-46.75093200000000	736.22263999999996	-66.13080500000000	0.16277400000000	0.00000000000000	-0.10225300000000	0.00000000000000	-11.67798700000000	0.00000000000000	0.00000000000000	-28.73160300000000	0.00000000000000	
22.68825000000000	1.97083300000000	154.29164100000000	-12.05483700000000	0.38668700000000	0.00000000000000	0.12997100000000	-46.87154800000000	731.20362299999999	-65.41666700000000	0.16214400000000	0.00000000000000	-0.10212000000000	0.00000000000000	-11.43499200000000	0.00000000000000	0.00000000000000	-28.47190700000000	0.00000000000000	
22.68991600000000	2.94820500000000	162.71618000000001	-11.41846000000000	0.38787300000000	0.00000000000000	0.13047300000000	-46.99188200000000	725.99990700000001	-64.66238700000000	0.16151300000000	0.00000000000000	-0.10198100000000	0.00000000000000	-11.16520700000000	0.00000000000000	0.00000000000000	-28.20447700000000	0.00000000000000	
22.69157900000000	3.97213300000000	171.36197799999999	-10.74178000000000	0.38903300000000	0.00000000000000	0.13094900000000	-47.11137300000000	720.61246100000005	-63.86836500000000	0.16088400000000	0.00000000000000	-0.10183700000000	0.00000000000000	-10.87378700000000	0.00000000000000	0.00000000000000	-27.92941300000000	0.00000000000000	
22.69324400000000	5.04078300000000	180.23906099999999	-10.02838200000000	0.39017000000000	0.00000000000000	0.13140200000000	-47.22941500000000	715.04241700000000	-63.03509700000000	0.16025600000000	0.00000000000000	-0.10168700000000	0.00000000000000	-10.56345900000000	0.00000000000000	0.00000000000000	-27.64682700000000	0.00000000000000	
22.69491100000000	6.15343000000000	189.34878499999999	-9.27915500000000	0.39128800000000	0.00000000000000	0.13183300000000	-47.34536000000000	709.29106100000001	-62.16316900000000	0.15963100000000	0.00000000000000	-0.10153100000000	0.00000000000000	-10.23481300000000	0.00000000000000	0.00000000000000	-27.35683800000000	0.00000000000000	
22.69658800000000	7.31018800000000	198.68479900000000	-8.49282200000000	0.39238800000000	0.00000000000000	0.13224300000000	-47.45851300000000	703.35984199999996	-61.25326400000000	0.15901000000000	0.00000000000000	-0.10137000000000	0.00000000000000	-9.88670100000000	0.00000000000000	0.00000000000000	-27.05957600000000	0.00000000000000	
22.69825000000000	8.51172300000000	208.23436500000000	-7.66653900000000	0.39347100000000	0.00000000000000	0.13263500000000	-47.56814000000000	697.25036299999999	-60.30615300000000	0.15839300000000	0.00000000000000	-0.10120300000000	0.00000000000000	-9.51669300000000	0.00000000000000	0.00000000000000	-26.75517700000000	0.00000000000000	
22.69991500000000	9.75897200000000	217.97987000000001	-6.79649900000000	0.39454000000000	0.00000000000000	0.13301000000000	-47.67346600000000	690.96438799999999	-59.32270300000000	0.15778300000000	0.00000000000000	-0.10103000000000	0.00000000000000	-9.12154200000000	0.00000000000000	0.00000000000000	-26.44378300000000	0.00000000000000	
22.70159000000000	11.05287600000000	227.90037599999999	-5.87851000000000	0.39559400000000	0.00000000000000	0.13336900000000	-47.77367400000000	684.50383799999997	-58.30386800000000	0.15717900000000	0.00000000000000	-0.10085000000000	0.00000000000000	-8.69763700000000	0.00000000000000	0.00000000000000	-26.12554500000000	0.00000000000000	
22.70325100000000	12.39416200000000	237.97309400000000	-4.90849600000000	0.39663500000000	0.00000000000000	0.13371200000000	-47.86791200000000	677.87079100000005	-57.25069300000000	0.15658400000000	0.00000000000000	-0.10066500000000	0.00000000000000	-8.24139000000000	0.00000000000000	0.00000000000000	-25.80061800000000	0.00000000000000	
22.70491500000000	13.78316400000000	248.17469399999999	-3.88290200000000	0.39766300000000	0.00000000000000	0.13404100000000	-47.95529200000000	671.06748200000004	-56.16430800000000	0.15599800000000	0.00000000000000	-0.10047300000000	0.00000000000000	-7.74956500000000	0.00000000000000	0.00000000000000	-25.46916200000000	0.00000000000000	
22.70658400000000	15.21970300000000	258.48236700000001	-2.79899400000000	0.39867800000000	0.00000000000000	0.13435700000000	-48.03488900000000	664.09629900000004	-55.04593100000000	0.15542300000000	0.00000000000000	-0.10027500000000	0.00000000000000	-7.21951400000000	0.00000000000000	0.00000000000000	-25.13134200000000	0.00000000000000	
22.70824700000000	16.70301100000000	268.87464399999999	-1.65505500000000	0.39968100000000	0.00000000000000	0.13466000000000	-48.10575000000000	656.95978400000001	-53.89685900000000	0.15485900000000	0.00000000000000	-0.10007000000000	0.00000000000000	-6.64934400000000	0.00000000000000	0.00000000000000	-24.78732400000000	0.00000000000000	
22.70991400000000	18.23171000000000	279.33192500000001	-0.45047200000000	0.40067100000000	0.00000000000000	0.13495100000000	-48.16688800000000	649.66062299999999	-52.71847300000000	0.15430900000000	0.00000000000000	-0.09985900000000	0.00000000000000	-6.03798700000000	0.00000000000000	0.00000000000000	-24.43728000000000	0.00000000000000	
22.71158200000000	19.80382200000000	289.83676700000001	0.81426100000000	0.40164900000000	0.00000000000000	0.13523000000000	-48.21729200000000	642.20164699999998	-51.51223200000000	0.15377400000000	0.00000000000000	-0.09964100000000	0.00000000000000	-5.38522000000000	0.00000000000000	0.00000000000000	-24.08138100000000	0.00000000000000	
22.71325100000000	21.41682300000000	300.37394599999999	2.13761100000000	0.40261300000000	0.00000000000000	0.13549900000000	-48.25592300000000	634.58582100000001	-50.27967000000000	0.15325400000000	0.00000000000000	-0.09941600000000	0.00000000000000	-4.69160900000000	0.00000000000000	0.00000000000000	-23.71980300000000	0.00000000000000	
22.71491700000000	23.06770600000000	310.93033600000001	3.51713200000000	0.40356500000000	0.00000000000000	0.13575700000000	-48.28172300000000	626.81623999999999	-49.02239600000000	0.15275200000000	0.00000000000000	-0.09918400000000	0.00000000000000	-3.95843000000000	0.00000000000000	0.00000000000000	-23.35271900000000	0.00000000000000	
22.71658200000000	24.75306800000000	321.49466000000001	4.94962000000000	0.40450200000000	0.00000000000000	0.13600400000000	-48.29361200000000	618.89611700000000	-47.74208900000000	0.15226800000000	0.00000000000000	-0.09894500000000	0.00000000000000	-3.18754500000000	0.00000000000000	0.00000000000000	-22.98030700000000	0.00000000000000	
